<mxfile host="app.diagrams.net" modified="2023-10-28T06:50:19.559Z" agent="Mozilla/5.0 (Macintosh; Intel Mac OS X 10_15_7) AppleWebKit/605.1.15 (KHTML, like Gecko) Version/16.5.2 Safari/605.1.15" version="22.0.8" etag="4jvUa3JiwJGUJt_pilRE" type="github">
  <diagram name="Strona-1" id="T_dlpCh5n8Hz6G-9_4qi">
    <mxGraphModel>
      <root>
        <mxCell id="0" />
        <mxCell id="1" parent="0" />
      </root>
    </mxGraphModel>
  </diagram>
</mxfile>
